<?xml version="1.0" encoding="UTF-8" standalone="no"?>
<!-- Created with Inkscape (http://www.inkscape.org/) -->

<svg
   width="8.6436119mm"
   height="9.9992905mm"
   viewBox="0 0 8.6436116 9.9992903"
   version="1.1"
   id="svg6328"
   sodipodi:docname="logoIcon.svg"
   inkscape:version="1.1.2 (b8e25be833, 2022-02-05)"
   xmlns:inkscape="http://www.inkscape.org/namespaces/inkscape"
   xmlns:sodipodi="http://sodipodi.sourceforge.net/DTD/sodipodi-0.dtd"
   xmlns="http://www.w3.org/2000/svg"
   xmlns:svg="http://www.w3.org/2000/svg">
  <sodipodi:namedview
     id="namedview6330"
     pagecolor="#ffffff"
     bordercolor="#666666"
     borderopacity="1.0"
     inkscape:pageshadow="2"
     inkscape:pageopacity="0.0"
     inkscape:pagecheckerboard="0"
     inkscape:document-units="mm"
     showgrid="false"
     fit-margin-top="0"
     fit-margin-left="0"
     fit-margin-right="0"
     fit-margin-bottom="0"
     inkscape:zoom="22.691807"
     inkscape:cx="15.335932"
     inkscape:cy="40.851749"
     inkscape:window-width="1920"
     inkscape:window-height="1000"
     inkscape:window-x="-11"
     inkscape:window-y="-11"
     inkscape:window-maximized="1"
     inkscape:current-layer="layer1" />
  <defs
     id="defs6325" />
  <g
     inkscape:label="Layer 1"
     inkscape:groupmode="layer"
     id="layer1"
     transform="translate(611.5568,497.20208)">
    <path
       id="path7148"
       style="fill:#000000;stroke-width:0.00756306"
       d="m -607.21235,-497.20208 c -0.006,0.002 -0.10233,0.23002 -0.21589,0.50693 -0.24661,0.60089 -0.17515,0.52148 -0.48666,0.5284 -0.29044,0.005 -0.28126,0.004 -0.27434,0.062 0.0167,0.14285 0.0294,1.20755 0.0155,1.2214 -0.008,0.008 -0.0566,0.0304 -0.10854,0.0489 -1.32161,0.47647 -1.88565,1.53042 -1.55419,2.90561 0.0884,0.36667 0.37251,0.98196 0.82659,1.78797 0.21286,0.37764 0.27031,0.5411 0.34233,0.96973 0.0411,0.24397 0.0412,0.22678 0.0251,0.43059 -0.007,0.0976 0.0266,0.1488 0.12166,0.1825 l 0.001,-0.001 c 0.036,0.0125 0.99786,0.015 1.01863,0.001 0.003,-0.002 0.16865,-0.002 0.36738,-0.001 0.54013,0.002 0.53183,0.003 0.57015,-0.008 0.10548,-0.0304 0.13897,-0.11819 0.10735,-0.27076 -0.0293,-0.14186 10e-4,-0.30237 0.14552,-0.78247 0.1459,-0.48483 0.1738,-0.54504 0.41986,-0.92201 0.69277,-1.06116 0.86418,-1.79863 0.63336,-2.71832 -0.21304,-0.84922 -0.84245,-1.45141 -1.69613,-1.62337 -0.0586,-0.0118 -0.0533,-0.0217 -0.0918,0.18607 -0.0392,0.21143 -0.0386,0.21136 -0.0155,0.21828 0.009,0 0.0488,0.01 0.0883,0.0191 0.70934,0.15344 1.24101,0.74094 1.34903,1.48978 0.0351,0.24787 0.0399,0.71864 0.007,0.77172 -0.002,0.005 -0.17867,0.007 -0.41867,0.007 -0.45489,0 -0.43894,0.002 -0.43894,-0.0441 0,-0.0252 -0.1708,-1.36977 -0.17773,-1.38362 -0.003,-0.008 -0.0538,-0.01 -0.22185,-0.01 -0.26477,0 -0.20139,-0.11454 -0.40913,0.74191 -0.19935,0.8226 -0.18303,0.76478 -0.19919,0.71447 -0.0171,-0.0527 -0.36819,-1.19496 -0.40674,-1.32399 -0.0437,-0.14611 -0.0176,-0.1324 -0.25764,-0.1324 -0.23589,0 -0.21739,-0.0102 -0.22663,0.10616 -0.004,0.0476 -0.0293,0.30362 -0.0561,0.56776 -0.0268,0.26415 -0.0577,0.58845 -0.0716,0.72163 -0.024,0.25462 -0.036,0.34868 -0.0429,0.36022 -0.007,0.0115 -0.82118,0.009 -0.83733,-0.002 -0.0254,-0.019 -0.0896,-0.31209 -0.1157,-0.52721 -0.12554,-1.03438 0.4574,-1.80264 1.61144,-2.12195 0.0709,-0.0194 0.13263,-0.0384 0.13956,-0.0453 0.008,-0.009 0.0104,-0.0639 0.001,-0.39481 -0.0218,-0.91842 -0.0578,-0.80435 0.25168,-0.78127 0.13747,0.01 0.10469,0.0556 0.30296,-0.42821 0.2407,-0.58876 0.2224,-0.54748 0.23856,-0.54748 0.0135,0 0.28254,0.0625 0.33517,0.0763 0.0351,0.0101 0.0347,-0.0481 10e-4,0.56895 -0.0231,0.40218 -0.0259,0.49404 -0.0167,0.50097 0.005,0.005 0.059,0.0287 0.11928,0.0525 0.22181,0.087 0.46472,0.21457 0.67153,0.35306 0.0549,0.0367 0.10351,0.0668 0.10497,0.0668 0.003,0 0.19034,-0.14328 0.41747,-0.31847 0.4876,-0.3763 0.41515,-0.34396 0.53078,-0.23617 0.0522,0.0485 0.11402,0.10439 0.13479,0.12285 0.0534,0.0466 0.0721,0.007 -0.24094,0.48904 -0.32107,0.49448 -0.30084,0.44481 -0.22305,0.54152 0.15682,0.19532 0.28913,0.39928 0.40316,0.62502 0.0365,0.072 0.0718,0.13375 0.0787,0.13836 0.0112,0.006 0.55996,-0.0626 0.98046,-0.12285 0.0676,-0.01 0.20993,0.27077 0.18131,0.35664 -0.002,0.005 -0.2118,0.11553 -0.46757,0.24571 -0.53296,0.27139 -0.47799,0.21608 -0.44729,0.44729 0.0266,0.2066 0.0343,0.41474 0.025,0.62502 -0.0113,0.22183 -0.0843,0.16281 0.48904,0.39838 0.26354,0.10826 0.48162,0.19774 0.48307,0.1992 0.006,0.006 -0.0755,0.35814 -0.0847,0.36737 -0.01,0.0104 -0.19497,0.004 -0.84687,-0.0322 -0.23146,-0.0132 -0.21836,-0.0169 -0.24929,0.0692 -0.0774,0.21463 -0.21284,0.47842 -0.35664,0.69539 -0.0422,0.0637 -0.0716,0.11489 -0.0716,0.12643 0,0.0173 0.1305,0.18986 0.56538,0.75026 0.0856,0.11019 0.0935,0.0763 -0.0549,0.23736 -0.15215,0.16511 -0.0656,0.18765 -0.58088,-0.14671 -0.24044,-0.15599 -0.44037,-0.28388 -0.44729,-0.28388 -0.005,0 -0.027,0.0137 -0.0501,0.0322 -0.0694,0.0561 -0.21929,0.16769 -0.29223,0.21708 -0.0385,0.0261 -0.0692,0.0491 -0.0692,0.0537 0,0.006 0.20562,0.31901 0.21947,0.33517 0.004,0.004 0.047,-0.0199 0.10497,-0.0584 0.054,-0.036 0.10281,-0.0656 0.10973,-0.0656 0.0137,0 -0.0143,-0.0174 0.50693,0.32086 0.47943,0.31137 0.42707,0.29094 0.51409,0.19561 0.0374,-0.041 0.19884,-0.21623 0.35903,-0.39003 0.16002,-0.17383 0.2924,-0.31871 0.29342,-0.32563 10e-4,-0.005 -0.15036,-0.20613 -0.33756,-0.44849 -0.3404,-0.44063 -0.34101,-0.44061 -0.28746,-0.53317 0.0293,-0.051 0.0818,-0.15126 0.1169,-0.22305 0.0798,-0.16272 -0.043,-0.14774 0.8087,-0.10019 0.35313,0.0216 0.37246,0.0196 0.38169,-0.001 0.0125,-0.0288 0.22663,-0.99544 0.22663,-1.02221 0,-0.0252 8.5e-4,-0.0252 -0.44729,-0.20874 -0.60031,-0.24564 -0.5715,-0.2344 -0.57612,-0.25287 0,-0.009 -0.006,-0.0879 -0.007,-0.17534 -0.005,-0.0875 -0.007,-0.19197 -0.0143,-0.23259 -0.0113,-0.0939 -0.0213,-0.0836 0.16938,-0.18011 0.40328,-0.20413 0.80305,-0.40943 0.81228,-0.41866 0.008,-0.008 -0.0103,-0.0756 -0.10258,-0.37096 -0.0623,-0.19931 -0.13248,-0.42649 -0.15626,-0.50335 -0.0238,-0.0769 -0.0491,-0.14575 -0.0561,-0.15268 -0.015,-0.0157 0.0197,-0.0195 -0.66915,0.0752 -0.48566,0.0667 -0.43745,0.069 -0.49261,-0.0298 -0.024,-0.0427 -0.0827,-0.13526 -0.13002,-0.20635 -0.0476,-0.0713 -0.0859,-0.13263 -0.0859,-0.13956 0,-0.005 0.13255,-0.21235 0.29343,-0.46041 0.16088,-0.24815 0.29316,-0.46192 0.29461,-0.47115 0.004,-0.0264 -0.7573,-0.73236 -0.78962,-0.73236 -0.0136,0 -0.13712,0.0913 -0.4282,0.31608 -0.22521,0.17409 -0.42032,0.32478 -0.43417,0.33401 -0.024,0.0178 -0.0243,0.0178 -0.12882,-0.0406 -0.0575,-0.0321 -0.15773,-0.0841 -0.22305,-0.1157 -0.14311,-0.0696 -0.12943,0.0195 -0.0978,-0.62024 0.0191,-0.38823 0.026,-0.54302 0.0191,-0.55226 -0.009,-0.0139 -1.03118,-0.24786 -1.04964,-0.24094 z m -1.78917,0.98882 c -0.21793,0.003 -0.4331,0.13813 -0.49023,0.40435 -0.0178,0.0826 -0.0161,0.0798 -0.17534,0.16937 -2.33065,1.31039 -2.54877,4.62074 -0.4127,6.26447 0.12672,0.0974 0.12024,0.0892 0.11331,0.15268 -0.0318,0.27169 0.12568,0.51491 0.37334,0.57492 0.32679,0.0792 0.64014,-0.16357 0.63933,-0.495 -8.1e-4,-0.33762 -0.31787,-0.57983 -0.64291,-0.49143 -0.0907,0.0245 -0.10394,0.0175 -0.33875,-0.17772 -1.70398,-1.41682 -1.55738,-4.10558 0.28985,-5.3353 0.2545,-0.16919 0.29567,-0.1858 0.35545,-0.14194 0.36995,0.27155 0.90468,-0.0869 0.7932,-0.53198 -0.0663,-0.26478 -0.28662,-0.39495 -0.50455,-0.39242 z m -0.005,0.3137 c 0.051,-0.004 0.10466,0.0128 0.1491,0.0573 0.10156,0.10144 0.0589,0.2795 -0.0763,0.31966 -0.11137,0.033 -0.21432,-0.021 -0.24571,-0.12882 -0.0386,-0.13191 0.0607,-0.23984 0.17295,-0.24809 z m 0.96019,3.32666 c 10e-4,-10e-4 0.1397,0.44432 0.30773,0.99119 0.16788,0.54688 0.30901,0.99113 0.31132,0.98882 0.008,-0.008 0.0443,-0.15437 0.27911,-1.08424 0.11171,-0.443 0.20762,-0.81505 0.20993,-0.82659 0.009,0.0126 0.0461,0.25935 0.0859,0.59519 0.007,0.0619 0.0157,0.11466 0.0203,0.11928 0.005,0.005 0.209,0.0105 0.54749,0.0119 0.6206,0.004 0.57342,0.001 0.56418,0.0382 -0.0451,0.16348 -0.19812,0.45373 -0.46637,0.88504 -0.27237,0.438 -0.40117,0.69066 -0.4628,0.90532 -0.0168,0.0586 -0.0434,0.14322 -0.0572,0.18846 -0.0526,0.16441 -0.10413,0.38109 -0.15029,0.62859 -0.0143,0.0731 -0.0288,0.13457 -0.0358,0.14313 -0.0123,0.0128 -1.3099,0.0258 -1.31682,0.0143 -0.002,-0.004 -0.01,-0.0527 -0.0167,-0.10854 -0.0461,-0.39616 -0.19069,-0.85224 -0.37811,-1.18801 -0.0383,-0.0691 -0.10275,-0.1869 -0.14314,-0.26122 -0.0889,-0.16397 -0.45468,-0.87677 -0.4616,-0.90055 -0.005,-0.0162 -0.005,-0.0155 0.52124,-0.0155 0.2894,0 0.52599,-0.005 0.52602,-0.007 4.6e-4,-0.0197 0.11424,-1.11618 0.1157,-1.11763 z m -1.42299,3.23839 c 0.0307,-7.3e-4 0.0625,0.005 0.093,0.0203 0.15465,0.0759 0.13883,0.29871 -0.0251,0.35665 -0.13092,0.0461 -0.27141,-0.0691 -0.25526,-0.20874 0.0118,-0.0987 0.0951,-0.16591 0.18727,-0.16818 z m 1.42656,1.02937 c -0.15201,10e-4 -0.25927,0.004 -0.27791,0.01 -0.069,0.0197 -0.0825,0.36142 -0.0167,0.3972 v -10e-4 c 0.0336,0.0175 1.57432,0.0173 1.60548,-0.001 0.048,-0.0277 0.0589,-0.33356 0.0143,-0.37811 -0.017,-0.0173 -0.86913,-0.03 -1.32518,-0.0262 z m 0.48427,0.70493 c -0.15395,-10e-4 -0.30928,10e-4 -0.32682,0.008 -0.0404,0.0148 -0.0632,0.27601 -0.0334,0.36141 v 10e-4 c 0.01,0.0277 0.68043,0.0387 0.70374,0.0107 0.0344,-0.0413 0.0145,-0.3478 -0.0239,-0.36857 -0.0132,-0.007 -0.16572,-0.012 -0.31967,-0.0131 z" />
    <rect
       style="fill:none;stroke-width:0.3;stroke-miterlimit:10"
       id="rect849"
       width="8.6240253"
       height="7.0740051"
       x="-607.68158"
       y="-499.10724" />
  </g>
</svg>
